<?xml version="1.0" encoding="UTF-8" standalone="no"?>
<!-- Created with Inkscape (http://www.inkscape.org/) -->

<svg
   xmlns:dc="http://purl.org/dc/elements/1.1/"
   xmlns:cc="http://creativecommons.org/ns#"
   xmlns:rdf="http://www.w3.org/1999/02/22-rdf-syntax-ns#"
   xmlns:svg="http://www.w3.org/2000/svg"
   xmlns="http://www.w3.org/2000/svg"
   xmlns:sodipodi="http://sodipodi.sourceforge.net/DTD/sodipodi-0.dtd"
   xmlns:inkscape="http://www.inkscape.org/namespaces/inkscape"
   width="297mm"
   height="210mm"
   viewBox="0 0 1052.3622 744.09448"
   id="svg2"
   version="1.1"
   inkscape:version="0.91 r13725"
   sodipodi:docname="backend1.svg">
  <defs
     id="defs4" />
  <sodipodi:namedview
     id="base"
     pagecolor="#ffffff"
     bordercolor="#666666"
     borderopacity="1.0"
     inkscape:pageopacity="0.0"
     inkscape:pageshadow="2"
     inkscape:zoom="1"
     inkscape:cx="478.39258"
     inkscape:cy="357.66409"
     inkscape:document-units="px"
     inkscape:current-layer="layer1"
     showgrid="false"
     inkscape:window-width="1440"
     inkscape:window-height="790"
     inkscape:window-x="0"
     inkscape:window-y="274"
     inkscape:window-maximized="1" />
  <metadata
     id="metadata7">
    <rdf:RDF>
      <cc:Work
         rdf:about="">
        <dc:format>image/svg+xml</dc:format>
        <dc:type
           rdf:resource="http://purl.org/dc/dcmitype/StillImage" />
        <dc:title></dc:title>
      </cc:Work>
    </rdf:RDF>
  </metadata>
  <g
     inkscape:label="Layer 1"
     inkscape:groupmode="layer"
     id="layer1"
     transform="translate(0,-308.26772)">
    <rect
       style="opacity:0.92000002;fill:#e9c6af;fill-opacity:0;fill-rule:nonzero;stroke:none;stroke-opacity:1"
       id="rect3336"
       width="130"
       height="55"
       x="388"
       y="493.36221"
       rx="76.162399"
       ry="8.3123102" />
    <rect
       style="opacity:0.92000002;fill:#ffb380;fill-opacity:0;fill-rule:nonzero;stroke:none;stroke-opacity:1"
       id="rect3338"
       width="145"
       height="85"
       x="381"
       y="471.36221"
       rx="76.162399"
       ry="8.3123102" />
    <path
       style="opacity:1;fill:#ee7e33;fill-opacity:0;fill-rule:nonzero;stroke:none;stroke-opacity:1"
       d="m 299.8,466.19387 c -13.05188,-1.43943 -23.69786,-11.18845 -28.97852,-26.53695 -7.5631,-21.98254 1.45258,-47.14705 20.2581,-56.54428 l 6.03986,-3.01815 113.3688,0 113.36879,0 5.72149,2.88851 c 30.73617,15.51725 30.73617,65.70572 0,81.22298 l -5.72149,2.88851 -109.27851,-0.14702 C 354.47533,466.86661 302.825,466.52749 299.8,466.19387 Z"
       id="path4146"
       inkscape:connector-curvature="0"
       transform="translate(0,308.26772)" />
    <path
       style="opacity:1;fill:#ee7e33;fill-opacity:0;fill-rule:nonzero;stroke:none;stroke-opacity:1"
       d="m 299.8,466.19387 c -13.05188,-1.43943 -23.69786,-11.18845 -28.97852,-26.53695 -7.5631,-21.98254 1.45258,-47.14705 20.2581,-56.54428 l 6.03986,-3.01815 113.3688,0 113.36879,0 5.72149,2.88851 c 30.73617,15.51725 30.73617,65.70572 0,81.22298 l -5.72149,2.88851 -109.27851,-0.14702 C 354.47533,466.86661 302.825,466.52749 299.8,466.19387 Z"
       id="path4148"
       inkscape:connector-curvature="0"
       transform="translate(0,308.26772)" />
    <path
       style="opacity:1;fill:#ee7e33;fill-opacity:0;fill-rule:nonzero;stroke:none;stroke-opacity:1"
       d="m 299.8,466.19387 c -13.05188,-1.43943 -23.69786,-11.18845 -28.97852,-26.53695 -7.5631,-21.98254 1.45258,-47.14705 20.2581,-56.54428 l 6.03986,-3.01815 113.3688,0 113.36879,0 5.72149,2.88851 c 30.73617,15.51725 30.73617,65.70572 0,81.22298 l -5.72149,2.88851 -109.27851,-0.14702 C 354.47533,466.86661 302.825,466.52749 299.8,466.19387 Z"
       id="path4150"
       inkscape:connector-curvature="0"
       transform="translate(0,308.26772)" />
    <path
       style="opacity:1;fill:#ee7e33;fill-opacity:0;fill-rule:nonzero;stroke:none;stroke-opacity:1"
       d="m 299.8,466.19387 c -13.05188,-1.43943 -23.69786,-11.18845 -28.97852,-26.53695 -7.5631,-21.98254 1.45258,-47.14705 20.2581,-56.54428 l 6.03986,-3.01815 113.3688,0 113.36879,0 5.72149,2.88851 c 30.73617,15.51725 30.73617,65.70572 0,81.22298 l -5.72149,2.88851 -109.27851,-0.14702 C 354.47533,466.86661 302.825,466.52749 299.8,466.19387 Z"
       id="path4152"
       inkscape:connector-curvature="0"
       transform="translate(0,308.26772)" />
    <path
       style="opacity:1;fill:#ee7e33;fill-opacity:0;fill-rule:nonzero;stroke:none;stroke-opacity:1"
       d="m 299.8,466.19387 c -13.05188,-1.43943 -23.69786,-11.18845 -28.97852,-26.53695 -7.5631,-21.98254 1.45258,-47.14705 20.2581,-56.54428 l 6.03986,-3.01815 113.3688,0 113.36879,0 5.72149,2.88851 c 30.73617,15.51725 30.73617,65.70572 0,81.22298 l -5.72149,2.88851 -109.27851,-0.14702 C 354.47533,466.86661 302.825,466.52749 299.8,466.19387 Z"
       id="path4154"
       inkscape:connector-curvature="0"
       transform="translate(0,308.26772)" />
    <path
       style="opacity:1;fill:#ee7e33;fill-opacity:0;fill-rule:nonzero;stroke:none;stroke-opacity:1"
       d="m 299.8,466.19387 c -13.05188,-1.43943 -23.69786,-11.18845 -28.97852,-26.53695 -7.5631,-21.98254 1.45258,-47.14705 20.2581,-56.54428 l 6.03986,-3.01815 113.3688,0 113.36879,0 5.72149,2.88851 c 30.73617,15.51725 30.73617,65.70572 0,81.22298 l -5.72149,2.88851 -109.27851,-0.14702 C 354.47533,466.86661 302.825,466.52749 299.8,466.19387 Z"
       id="path4156"
       inkscape:connector-curvature="0"
       transform="translate(0,308.26772)" />
    <path
       style="opacity:1;fill:#ee7e33;fill-opacity:0;fill-rule:nonzero;stroke:none;stroke-opacity:1"
       d="m 299.8,466.19387 c -13.05188,-1.43943 -23.69786,-11.18845 -28.97852,-26.53695 -7.5631,-21.98254 1.45258,-47.14705 20.2581,-56.54428 l 6.03986,-3.01815 113.3688,0 113.36879,0 5.72149,2.88851 c 30.73617,15.51725 30.73617,65.70572 0,81.22298 l -5.72149,2.88851 -109.27851,-0.14702 C 354.47533,466.86661 302.825,466.52749 299.8,466.19387 Z"
       id="path4158"
       inkscape:connector-curvature="0"
       transform="translate(0,308.26772)" />
    <path
       style="opacity:1;fill:#ee7e33;fill-opacity:0;fill-rule:nonzero;stroke:none;stroke-opacity:1"
       d="m 299.8,466.19387 c -13.05188,-1.43943 -23.69786,-11.18845 -28.97852,-26.53695 -7.5631,-21.98254 1.45258,-47.14705 20.2581,-56.54428 l 6.03986,-3.01815 113.3688,0 113.36879,0 5.72149,2.88851 c 30.73617,15.51725 30.73617,65.70572 0,81.22298 l -5.72149,2.88851 -109.27851,-0.14702 C 354.47533,466.86661 302.825,466.52749 299.8,466.19387 Z"
       id="path4160"
       inkscape:connector-curvature="0"
       transform="translate(0,308.26772)" />
    <path
       style="opacity:1;fill:#ee7e33;fill-opacity:0;fill-rule:nonzero;stroke:none;stroke-opacity:1"
       d="m 299.8,466.19387 c -13.05188,-1.43943 -23.69786,-11.18845 -28.97852,-26.53695 -7.5631,-21.98254 1.45258,-47.14705 20.2581,-56.54428 l 6.03986,-3.01815 113.3688,0 113.36879,0 5.72149,2.88851 c 30.73617,15.51725 30.73617,65.70572 0,81.22298 l -5.72149,2.88851 -109.27851,-0.14702 C 354.47533,466.86661 302.825,466.52749 299.8,466.19387 Z"
       id="path4162"
       inkscape:connector-curvature="0"
       transform="translate(0,308.26772)" />
    <path
       style="opacity:1;fill:#ee7e33;fill-opacity:0;fill-rule:nonzero;stroke:none;stroke-opacity:1"
       d="m 299.8,466.19387 c -13.05188,-1.43943 -23.69786,-11.18845 -28.97852,-26.53695 -7.5631,-21.98254 1.45258,-47.14705 20.2581,-56.54428 l 6.03986,-3.01815 113.3688,0 113.36879,0 5.72149,2.88851 c 30.73617,15.51725 30.73617,65.70572 0,81.22298 l -5.72149,2.88851 -109.27851,-0.14702 C 354.47533,466.86661 302.825,466.52749 299.8,466.19387 Z"
       id="path4164"
       inkscape:connector-curvature="0"
       transform="translate(0,308.26772)" />
    <path
       style="opacity:1;fill:#ee7e33;fill-opacity:0;fill-rule:nonzero;stroke:none;stroke-opacity:1"
       d="m 299.8,466.19387 c -13.05188,-1.43943 -23.69786,-11.18845 -28.97852,-26.53695 -7.5631,-21.98254 1.45258,-47.14705 20.2581,-56.54428 l 6.03986,-3.01815 113.3688,0 113.36879,0 5.72149,2.88851 c 30.73617,15.51725 30.73617,65.70572 0,81.22298 l -5.72149,2.88851 -109.27851,-0.14702 C 354.47533,466.86661 302.825,466.52749 299.8,466.19387 Z"
       id="path4166"
       inkscape:connector-curvature="0"
       transform="translate(0,308.26772)" />
    <path
       style="opacity:1;fill:#ee7e33;fill-opacity:0;fill-rule:nonzero;stroke:none;stroke-opacity:1"
       d="m 318.02791,304.62049 c -10.62856,-4.94821 -19.87197,-18.21943 -24.39559,-35.026 -3.12871,-11.6241 -3.12871,-38.3759 0,-50 4.52362,-16.80657 13.76703,-30.0778 24.39559,-35.026 l 5.27209,-2.45446 55.57186,-0.01 c 62.46769,-0.011 61.07071,-0.15736 69.52553,7.28487 12.65026,11.1352 19.40261,30.34735 19.40261,55.20536 0,24.858 -6.75235,44.07015 -19.40261,55.20536 -8.45482,7.44223 -7.05784,7.29585 -69.52553,7.28487 l -55.57186,-0.01 -5.27209,-2.45446 z"
       id="path4168"
       inkscape:connector-curvature="0"
       transform="translate(0,308.26772)" />
    <path
       style="opacity:1;fill:#ee7e33;fill-opacity:0;fill-rule:nonzero;stroke:none;stroke-opacity:1"
       d="m 299.8,466.19387 c -13.05188,-1.43943 -23.69786,-11.18845 -28.97852,-26.53695 -7.5631,-21.98254 1.45258,-47.14705 20.2581,-56.54428 l 6.03986,-3.01815 113.3688,0 113.36879,0 5.72149,2.88851 c 30.73617,15.51725 30.73617,65.70572 0,81.22298 l -5.72149,2.88851 -109.27851,-0.14702 C 354.47533,466.86661 302.825,466.52749 299.8,466.19387 Z"
       id="path4170"
       inkscape:connector-curvature="0"
       transform="translate(0,308.26772)" />
    <path
       style="opacity:1;fill:#ee7e33;fill-opacity:0;fill-rule:nonzero;stroke:none;stroke-opacity:1"
       d="m 318.02791,304.62049 c -10.62856,-4.94821 -19.87197,-18.21943 -24.39559,-35.026 -3.12871,-11.6241 -3.12871,-38.3759 0,-50 4.52362,-16.80657 13.76703,-30.0778 24.39559,-35.026 l 5.27209,-2.45446 55.57186,-0.01 c 62.46769,-0.011 61.07071,-0.15736 69.52553,7.28487 12.65026,11.1352 19.40261,30.34735 19.40261,55.20536 0,24.858 -6.75235,44.07015 -19.40261,55.20536 -8.45482,7.44223 -7.05784,7.29585 -69.52553,7.28487 l -55.57186,-0.01 -5.27209,-2.45446 z"
       id="path4172"
       inkscape:connector-curvature="0"
       transform="translate(0,308.26772)" />
    <path
       style="opacity:1;fill:#ee7e33;fill-opacity:0;fill-rule:nonzero;stroke:none;stroke-opacity:1"
       d="m 318.02791,304.62049 c -10.62856,-4.94821 -19.87197,-18.21943 -24.39559,-35.026 -3.12871,-11.6241 -3.12871,-38.3759 0,-50 4.52362,-16.80657 13.76703,-30.0778 24.39559,-35.026 l 5.27209,-2.45446 55.57186,-0.01 c 62.46769,-0.011 61.07071,-0.15736 69.52553,7.28487 12.65026,11.1352 19.40261,30.34735 19.40261,55.20536 0,24.858 -6.75235,44.07015 -19.40261,55.20536 -8.45482,7.44223 -7.05784,7.29585 -69.52553,7.28487 l -55.57186,-0.01 -5.27209,-2.45446 z"
       id="path4174"
       inkscape:connector-curvature="0"
       transform="translate(0,308.26772)" />
    <rect
       style="opacity:1;fill:#000000;fill-opacity:0;fill-rule:nonzero;stroke:none;stroke-opacity:1"
       id="rect4176"
       width="198"
       height="63"
       x="290"
       y="401.36221"
       rx="38.162399"
       ry="61.312302" />
    <path
       style="opacity:1;fill:#c75e18;fill-opacity:0;fill-rule:nonzero;stroke:none;stroke-opacity:1"
       d="m 318.98486,303.31519 c -15.86727,-7.278 -26.08675,-30.15066 -26.12992,-58.48253 -0.0247,-16.1802 1.74714,-25.60739 6.99016,-37.19272 4.81658,-10.64304 10.08909,-16.92419 17.56202,-20.92166 5.7281,-3.06411 6.81989,-3.11997 60.98684,-3.11997 30.33488,0 56.94204,0.49887 59.12701,1.10859 5.65145,1.57705 16.21106,11.78434 20.07079,19.40114 6.33275,12.49709 8.3703,22.23963 8.42864,40.30146 0.0443,13.69446 -0.54911,18.88162 -3.07357,26.87005 -4.61186,14.59393 -11.11999,24.54716 -19.38578,29.6477 l -6.95782,4.29343 -55.97469,0.34738 c -51.77432,0.32131 -56.4001,0.15225 -61.64368,-2.25287 z"
       id="path4288"
       inkscape:connector-curvature="0"
       transform="translate(0,308.26772)" />
    <path
       style="opacity:1;fill:#e9640b;fill-opacity:0;fill-rule:nonzero;stroke:none;stroke-opacity:1"
       d="m 318.98486,303.31519 c -15.86727,-7.278 -26.08675,-30.15066 -26.12992,-58.48253 -0.0247,-16.1802 1.74714,-25.60739 6.99016,-37.19272 4.81658,-10.64304 10.08909,-16.92419 17.56202,-20.92166 5.7281,-3.06411 6.81989,-3.11997 60.98684,-3.11997 30.33488,0 56.94204,0.49887 59.12701,1.10859 5.65145,1.57705 16.21106,11.78434 20.07079,19.40114 6.33275,12.49709 8.3703,22.23963 8.42864,40.30146 0.0443,13.69446 -0.54911,18.88162 -3.07357,26.87005 -4.61186,14.59393 -11.11999,24.54716 -19.38578,29.6477 l -6.95782,4.29343 -55.97469,0.34738 c -51.77432,0.32131 -56.4001,0.15225 -61.64368,-2.25287 z"
       id="path4290"
       inkscape:connector-curvature="0"
       transform="translate(0,308.26772)" />
    <path
       style="opacity:1;fill:#e9640b;fill-opacity:0;fill-rule:nonzero;stroke:none;stroke-opacity:1"
       d="m 318.98486,303.31519 c -15.86727,-7.278 -26.08675,-30.15066 -26.12992,-58.48253 -0.0247,-16.1802 1.74714,-25.60739 6.99016,-37.19272 4.81658,-10.64304 10.08909,-16.92419 17.56202,-20.92166 5.7281,-3.06411 6.81989,-3.11997 60.98684,-3.11997 30.33488,0 56.94204,0.49887 59.12701,1.10859 5.65145,1.57705 16.21106,11.78434 20.07079,19.40114 6.33275,12.49709 8.3703,22.23963 8.42864,40.30146 0.0443,13.69446 -0.54911,18.88162 -3.07357,26.87005 -4.61186,14.59393 -11.11999,24.54716 -19.38578,29.6477 l -6.95782,4.29343 -55.97469,0.34738 c -51.77432,0.32131 -56.4001,0.15225 -61.64368,-2.25287 z"
       id="path4292"
       inkscape:connector-curvature="0"
       transform="translate(0,308.26772)" />
    <rect
       style="opacity:1;fill:#e9640b;fill-opacity:0.30196078;fill-rule:nonzero;stroke:none;stroke-opacity:1"
       id="rect4366"
       width="207.88939"
       height="60.81118"
       x="420.02142"
       y="605.4707"
       rx="6.8629684"
       ry="53.804672" />
    <rect
       style="opacity:1;fill:#e9640b;fill-opacity:0.30196078;fill-rule:nonzero;stroke:none;stroke-opacity:1"
       id="rect4366-5"
       width="207.88939"
       height="60.81118"
       x="420.72855"
       y="408.18793"
       rx="6.8629684"
       ry="53.804672" />
    <rect
       style="opacity:1;fill:#e9640b;fill-opacity:0.30196078;fill-rule:nonzero;stroke:none;stroke-opacity:1"
       id="rect4366-4"
       width="207.88939"
       height="60.81118"
       x="774.28192"
       y="607.59204"
       rx="6.8629684"
       ry="53.804672" />
    <rect
       style="opacity:1;fill:#e9640b;fill-opacity:0.30196078;fill-rule:nonzero;stroke:none;stroke-opacity:1"
       id="rect4366-6"
       width="207.88939"
       height="60.81118"
       x="54.447224"
       y="609.00629"
       rx="6.8629684"
       ry="53.804672" />
    <rect
       style="opacity:1;fill:#e9640b;fill-opacity:0.30196078;fill-rule:nonzero;stroke:none;stroke-opacity:1"
       id="rect4366-58"
       width="207.88939"
       height="60.81118"
       x="420.72855"
       y="809.82458"
       rx="6.8629684"
       ry="53.804672" />
    <rect
       style="opacity:1;fill:#abc837;fill-opacity:0.39215686;fill-rule:nonzero;stroke:none;stroke-opacity:1"
       id="rect4410"
       width="65.338997"
       height="65.101784"
       x="395.46783"
       y="192.35899"
       rx="0"
       ry="0"
       transform="matrix(0.74839752,0.66325044,-0.70782398,0.70638886,0,0)" />
    <rect
       style="opacity:1;fill:#abc837;fill-opacity:0.39215686;fill-rule:nonzero;stroke:none;stroke-opacity:1"
       id="rect4410-6"
       width="65.338997"
       height="65.101784"
       x="893.89313"
       y="-279.63202"
       rx="0"
       ry="0"
       transform="matrix(0.74839752,0.66325044,-0.70782398,0.70638886,0,0)" />
    <rect
       style="opacity:1;fill:#abc837;fill-opacity:0.39215686;fill-rule:nonzero;stroke:none;stroke-opacity:1"
       id="rect4410-8"
       width="65.338997"
       height="65.101784"
       x="1144.676"
       y="43.467308"
       rx="0"
       ry="0"
       transform="matrix(0.74839752,0.66325044,-0.70782398,0.70638886,0,0)" />
    <rect
       style="opacity:1;fill:#abc837;fill-opacity:0.39215686;fill-rule:nonzero;stroke:none;stroke-opacity:1"
       id="rect4410-61"
       width="65.338997"
       height="65.101784"
       x="864.29834"
       y="172.58638"
       rx="0"
       ry="0"
       transform="matrix(0.74839752,0.66325044,-0.70782398,0.70638886,0,0)" />
    <rect
       style="opacity:1;fill:#abc837;fill-opacity:0.39215686;fill-rule:nonzero;stroke:none;stroke-opacity:1"
       id="rect4410-82"
       width="65.338997"
       height="65.101784"
       x="714.86694"
       y="14.589318"
       rx="0"
       ry="0"
       transform="matrix(0.74839752,0.66325044,-0.70782398,0.70638886,0,0)" />
    <rect
       style="opacity:1;fill:#abc837;fill-opacity:0.39215686;fill-rule:nonzero;stroke:none;stroke-opacity:1"
       id="rect4410-0"
       width="65.338997"
       height="65.101784"
       x="708.30011"
       y="453.19418"
       rx="0"
       ry="0"
       transform="matrix(0.74839752,0.66325044,-0.70782398,0.70638886,0,0)" />
    <path
       style="fill:none;fill-rule:evenodd;stroke:#76920c;stroke-width:2;stroke-linecap:butt;stroke-linejoin:miter;stroke-opacity:0.7764706;fill-opacity:0.44281054;stroke-miterlimit:4;stroke-dasharray:none"
       d="m 209.30361,441.42194 210.71782,0"
       id="path4451"
       inkscape:connector-curvature="0" />
    <path
       style="fill:none;fill-rule:evenodd;stroke:#76920c;stroke-width:2;stroke-linecap:butt;stroke-linejoin:miter;stroke-opacity:0.7764706;fill-opacity:0.44281054;stroke-miterlimit:4;stroke-dasharray:none"
       d="m 629.32504,440.00773 195.16147,-1.41421"
       id="path4453"
       inkscape:connector-curvature="0" />
    <path
       style="fill:none;fill-rule:evenodd;stroke:#76920c;stroke-width:2;stroke-linecap:butt;stroke-linejoin:miter;stroke-opacity:0.7764706;fill-opacity:0.44281054;stroke-miterlimit:4;stroke-dasharray:none"
       d="m 871.15555,483.84835 0,123.03658"
       id="path4455"
       inkscape:connector-curvature="0" />
    <path
       style="fill:none;fill-rule:evenodd;stroke:#76920c;stroke-width:2;stroke-linecap:butt;stroke-linejoin:miter;stroke-opacity:0.7764706;fill-opacity:0.44281054;stroke-miterlimit:4;stroke-dasharray:none"
       d="m 825.90072,790.73269 0,-121.62236"
       id="path4459"
       inkscape:connector-curvature="0" />
    <path
       style="fill:none;fill-opacity:0.44281054;fill-rule:evenodd;stroke:#76920c;stroke-width:2;stroke-linecap:butt;stroke-linejoin:miter;stroke-miterlimit:4;stroke-dasharray:none;stroke-opacity:0.7764706"
       d="m 527.32489,784.19196 0,25.45584"
       id="path4461"
       inkscape:connector-curvature="0" />
    <path
       style="fill:none;fill-rule:evenodd;stroke:#76920c;stroke-width:2.00199819;stroke-linecap:butt;stroke-linejoin:miter;stroke-opacity:0.7764706;fill-opacity:0.44281054;stroke-miterlimit:4;stroke-dasharray:none"
       d="m 524.67323,666.2819 0,31.1127"
       id="path4463"
       inkscape:connector-curvature="0" />
    <path
       style="fill:none;fill-rule:evenodd;stroke:#76920c;stroke-width:2;stroke-linecap:butt;stroke-linejoin:miter;stroke-opacity:0.7764706;fill-opacity:0.44281054;stroke-miterlimit:4;stroke-dasharray:none"
       d="m 779.23167,835.98753 -149.90663,0"
       id="path4465"
       inkscape:connector-curvature="0" />
    <path
       style="fill:none;fill-rule:evenodd;stroke:#76920c;stroke-width:2;stroke-linecap:butt;stroke-linejoin:miter;stroke-opacity:0.7764706;fill-opacity:0.44281054;stroke-miterlimit:4;stroke-dasharray:none"
       d="m 255.97265,833.1591 162.63456,-1.41421"
       id="path4467"
       inkscape:connector-curvature="0" />
    <path
       style="fill:none;fill-rule:evenodd;stroke:#76920c;stroke-width:2;stroke-linecap:butt;stroke-linejoin:miter;stroke-opacity:0.7764706;fill-opacity:0.44281054;stroke-miterlimit:4;stroke-dasharray:none"
       d="m 210.71782,790.73269 0,-118.79394"
       id="path4471"
       inkscape:connector-curvature="0" />
    <path
       style="fill:none;fill-rule:evenodd;stroke:#76920c;stroke-width:2;stroke-linecap:butt;stroke-linejoin:miter;stroke-opacity:0.7764706;fill-opacity:0.44281054;stroke-miterlimit:4;stroke-dasharray:none"
       d="m 162.63456,483.84835 0,123.03658"
       id="path4473"
       inkscape:connector-curvature="0" />
    <path
       style="fill:none;fill-rule:evenodd;stroke:#76920c;stroke-width:2;stroke-linecap:butt;stroke-linejoin:miter;stroke-opacity:0.77725488;fill-opacity:0.44281054;stroke-miterlimit:4;stroke-dasharray:none"
       d="m 527.50166,571.52959 0,35.35534"
       id="path4475"
       inkscape:connector-curvature="0" />
    <path
       style="fill:none;fill-rule:evenodd;stroke:#76920c;stroke-width:2;stroke-linecap:butt;stroke-linejoin:miter;stroke-opacity:0.77725488;fill-opacity:0.44281054;stroke-miterlimit:4;stroke-dasharray:none"
       d="m 524.67323,469.70621 0,16.97057"
       id="path4477"
       inkscape:connector-curvature="0" />
    <rect
       style="opacity:1;fill:#ffdd55;fill-opacity:0.39215686;fill-rule:nonzero;stroke:none;stroke-opacity:1"
       id="rect4479-3"
       width="148.49242"
       height="28.284271"
       x="854.89209"
       y="679.00983"
       ry="14.142136" />
    <rect
       style="opacity:1;fill:#ffdd55;fill-opacity:0.39215686;fill-rule:nonzero;stroke:none;stroke-opacity:1"
       id="rect4479-0"
       width="148.49242"
       height="28.284271"
       x="854.89209"
       y="712.95093"
       ry="14.142136" />
    <rect
       style="opacity:1;fill:#ffdd55;fill-opacity:0.39215686;fill-rule:nonzero;stroke:none;stroke-opacity:1"
       id="rect4479-6"
       width="148.49242"
       height="28.284271"
       x="854.89209"
       y="745.47784"
       ry="14.142136" />
    <rect
       style="opacity:1;fill:#ffdd55;fill-opacity:0.39215686;fill-rule:nonzero;stroke:none;stroke-opacity:1"
       id="rect4479-7"
       width="148.49242"
       height="28.284271"
       x="877.51953"
       y="780.83319"
       ry="14.142136" />
    <rect
       style="opacity:1;fill:#ffdd55;fill-opacity:0.39215686;fill-rule:nonzero;stroke:none;stroke-opacity:1"
       id="rect4479-2"
       width="148.49242"
       height="28.284271"
       x="880.34796"
       y="813.36011"
       ry="14.142136" />
    <rect
       style="opacity:1;fill:#ffdd55;fill-opacity:0.39215686;fill-rule:nonzero;stroke:none;stroke-opacity:1"
       id="rect4479-31"
       width="148.49242"
       height="28.284271"
       x="881.76215"
       y="847.30127"
       ry="14.142136" />
    <rect
       style="opacity:1;fill:#ffdd55;fill-opacity:0.39215686;fill-rule:nonzero;stroke:none;stroke-opacity:1"
       id="rect4479-04"
       width="148.49242"
       height="28.284271"
       x="545.17932"
       y="671.93878"
       ry="14.142136" />
    <rect
       style="opacity:1;fill:#ffdd55;fill-opacity:0.39215686;fill-rule:nonzero;stroke:none;stroke-opacity:1"
       id="rect4479-1"
       width="148.49242"
       height="28.284271"
       x="566.39252"
       y="703.05145"
       ry="14.142136" />
    <rect
       style="opacity:1;fill:#ffdd55;fill-opacity:0.39215686;fill-rule:nonzero;stroke:none;stroke-opacity:1"
       id="rect4479-9"
       width="148.49242"
       height="28.284271"
       x="583.3631"
       y="734.16418"
       ry="14.142136" />
    <rect
       style="opacity:1;fill:#ffdd55;fill-opacity:0.39215686;fill-rule:nonzero;stroke:none;stroke-opacity:1"
       id="rect4479-5"
       width="148.49242"
       height="28.284271"
       x="26.162954"
       y="680.42407"
       ry="14.142136" />
    <rect
       style="opacity:1;fill:#ffdd55;fill-opacity:0.39215686;fill-rule:nonzero;stroke:none;stroke-opacity:1"
       id="rect4479-39"
       width="148.49242"
       height="28.284271"
       x="24.748741"
       y="711.53674"
       ry="14.142136" />
    <rect
       style="opacity:1;fill:#ffdd55;fill-opacity:0.39215686;fill-rule:nonzero;stroke:none;stroke-opacity:1"
       id="rect4479-13"
       width="148.49242"
       height="28.284271"
       x="26.162954"
       y="744.06366"
       ry="14.142136" />
    <rect
       style="opacity:1;fill:#ffdd55;fill-opacity:0.39215686;fill-rule:nonzero;stroke:none;stroke-opacity:1"
       id="rect4479-00"
       width="148.49242"
       height="28.284271"
       x="26.162954"
       y="776.59058"
       ry="14.142136" />
    <rect
       style="opacity:1;fill:#ffdd55;fill-opacity:0.39215686;fill-rule:nonzero;stroke:none;stroke-opacity:1"
       id="rect4479-74"
       width="148.49242"
       height="28.284271"
       x="12.020819"
       y="810.53168"
       ry="14.142136" />
    <rect
       style="opacity:1;fill:#ffdd55;fill-opacity:0.39215686;fill-rule:nonzero;stroke:none;stroke-opacity:1"
       id="rect4479-30"
       width="148.49242"
       height="28.284271"
       x="10.606606"
       y="843.05859"
       ry="14.142136" />
    <rect
       style="opacity:1;fill:#ffdd55;fill-opacity:0.39215686;fill-rule:nonzero;stroke:none;stroke-opacity:1"
       id="rect4479-4"
       width="148.49242"
       height="28.284271"
       x="310.41989"
       y="476.77728"
       ry="14.142136" />
    <rect
       style="opacity:1;fill:#ffdd55;fill-opacity:0.39215686;fill-rule:nonzero;stroke:none;stroke-opacity:1"
       id="rect4479-75"
       width="148.49242"
       height="28.284271"
       x="311.83411"
       y="509.30417"
       ry="14.142136" />
    <path
       style="fill:#abc837;fill-rule:evenodd;stroke:#76920c;stroke-width:1px;stroke-linecap:butt;stroke-linejoin:miter;stroke-opacity:0.7764706;fill-opacity:0.44281054"
       d="m 516.18795,799.21797 c 5.18545,0 10.3709,0 15.55635,0 0.94281,0 1.88562,0 2.82843,0 0.4714,0 1.41421,-0.4714 1.41421,0 0,0.47141 -1.88562,0 -1.41421,0 0.94281,0 1.88561,0 2.82842,0 0.47141,0 -0.94281,0 -1.41421,0"
       id="path4646"
       inkscape:connector-curvature="0" />
    <path
       style="fill:none;fill-rule:evenodd;stroke:#76920c;stroke-width:1.00099909;stroke-linecap:butt;stroke-linejoin:miter;stroke-opacity:0.7764706;stroke-miterlimit:4;stroke-dasharray:none"
       d="M 524.85001,679.00982 542.3509,666.45868"
       id="path4660"
       inkscape:connector-curvature="0" />
    <path
       style="fill:none;fill-rule:evenodd;stroke:#76920c;stroke-width:1.00099909;stroke-linecap:butt;stroke-linejoin:miter;stroke-opacity:0.7764706;stroke-miterlimit:4;stroke-dasharray:none"
       d="M 523.61257,678.83304 507.34912,666.45868"
       id="path4662"
       inkscape:connector-curvature="0" />
    <path
       style="fill:none;fill-rule:evenodd;stroke:#76920c;stroke-width:1px;stroke-linecap:butt;stroke-linejoin:miter;stroke-opacity:0.7764706"
       d="m 307,433.3622 0,19"
       id="path4666"
       inkscape:connector-curvature="0" />
    <path
       style="fill:none;fill-rule:evenodd;stroke:#76920c;stroke-width:1px;stroke-linecap:butt;stroke-linejoin:miter;stroke-opacity:0.7764706"
       d="m 162.75971,592.80537 17.55252,15.6377"
       id="path4670"
       inkscape:connector-curvature="0" />
    <path
       style="fill:none;fill-rule:evenodd;stroke:#76920c;stroke-width:1px;stroke-linecap:butt;stroke-linejoin:miter;stroke-opacity:0.7764706"
       d="m 161.16403,594.08192 -15.6377,14.36115"
       id="path4672"
       inkscape:connector-curvature="0" />
    <path
       style="fill:none;fill-rule:evenodd;stroke:#76920c;stroke-width:1px;stroke-linecap:butt;stroke-linejoin:miter;stroke-opacity:0.7764706"
       d="m 732.4187,432.59875 0,15.6377"
       id="path4674"
       inkscape:connector-curvature="0" />
    <path
       style="fill:none;fill-rule:evenodd;stroke:#76920c;stroke-width:1px;stroke-linecap:butt;stroke-linejoin:miter;stroke-opacity:0.7764706"
       d="m 871.24316,589.614 18.50993,17.55252"
       id="path4676"
       inkscape:connector-curvature="0" />
    <path
       style="fill:none;fill-rule:evenodd;stroke:#76920c;stroke-width:1px;stroke-linecap:butt;stroke-linejoin:miter;stroke-opacity:0.7764706"
       d="m 870.28575,589.93314 -15.31856,17.23338"
       id="path4678"
       inkscape:connector-curvature="0" />
    <path
       style="fill:none;fill-rule:evenodd;stroke:#76920c;stroke-width:1px;stroke-linecap:butt;stroke-linejoin:miter;stroke-opacity:0.7764706"
       d="m 825.92575,682.80192 15.31856,-13.72288"
       id="path4680"
       inkscape:connector-curvature="0" />
    <path
       style="fill:none;fill-rule:evenodd;stroke:#76920c;stroke-width:1px;stroke-linecap:butt;stroke-linejoin:miter;stroke-opacity:0.7764706"
       d="M 824.33007,682.80192 806.45841,668.7599"
       id="path4682"
       inkscape:connector-curvature="0" />
    <path
       style="fill:none;fill-rule:evenodd;stroke:#76920c;stroke-width:1px;stroke-linecap:butt;stroke-linejoin:miter;stroke-opacity:0.7764706"
       d="m 697.95194,827.37084 0.31913,15.63769"
       id="path4684"
       inkscape:connector-curvature="0" />
    <path
       style="fill:none;fill-rule:evenodd;stroke:#76920c;stroke-width:1px;stroke-linecap:butt;stroke-linejoin:miter;stroke-opacity:0.7764706"
       d="m 340.19971,823.22206 0,18.82906"
       id="path4686"
       inkscape:connector-curvature="0" />
    <path
       style="fill:none;fill-rule:evenodd;stroke:#76920c;stroke-width:1px;stroke-linecap:butt;stroke-linejoin:miter;stroke-opacity:0.7764706"
       d="M 194.99252,670.03645 209.6728,684.3976"
       id="path4688"
       inkscape:connector-curvature="0" />
    <path
       style="fill:none;fill-rule:evenodd;stroke:#76920c;stroke-width:1px;stroke-linecap:butt;stroke-linejoin:miter;stroke-opacity:0.7764706"
       d="m 210.94935,684.3976 14.68029,-14.36115"
       id="path4690"
       inkscape:connector-curvature="0" />
    <path
       style="fill:none;fill-rule:evenodd;stroke:#76920c;stroke-width:1px;stroke-linecap:butt;stroke-linejoin:miter;stroke-opacity:0.77725488"
       d="m 517.67257,478.27371 14.8938,0.45132"
       id="path4694"
       inkscape:connector-curvature="0" />
    <path
       style="fill:none;fill-rule:evenodd;stroke:#76920c;stroke-width:1px;stroke-linecap:butt;stroke-linejoin:miter;stroke-opacity:0.77725488"
       d="m 527.60177,592.91088 16.24779,12.63716"
       id="path4698"
       inkscape:connector-curvature="0" />
    <path
       style="fill:none;fill-rule:evenodd;stroke:#76920c;stroke-width:1px;stroke-linecap:butt;stroke-linejoin:miter;stroke-opacity:0.77725488"
       d="m 526.5,592.3622 -16,13.5"
       id="path4700"
       inkscape:connector-curvature="0" />
    <text
       xml:space="preserve"
       style="font-style:normal;font-weight:normal;font-size:15px;line-height:125%;font-family:sans-serif;letter-spacing:0px;word-spacing:0px;fill:#000000;fill-opacity:1;stroke:none;stroke-width:1px;stroke-linecap:butt;stroke-linejoin:miter;stroke-opacity:1"
       x="497"
       y="439.36221"
       id="text4702"
       sodipodi:linespacing="125%"><tspan
         sodipodi:role="line"
         id="tspan4704"
         x="497"
         y="439.36221">Course</tspan></text>
    <text
       xml:space="preserve"
       style="font-style:normal;font-weight:normal;font-size:15px;line-height:125%;font-family:sans-serif;letter-spacing:0px;word-spacing:0px;fill:#000000;fill-opacity:1;stroke:none;stroke-width:1px;stroke-linecap:butt;stroke-linejoin:miter;stroke-opacity:1"
       x="480"
       y="638.36218"
       id="text4706"
       sodipodi:linespacing="125%"><tspan
         sodipodi:role="line"
         id="tspan4708"
         x="480"
         y="638.36218">UserCourse</tspan></text>
    <text
       xml:space="preserve"
       style="font-style:normal;font-weight:normal;font-size:15px;line-height:125%;font-family:sans-serif;letter-spacing:0px;word-spacing:0px;fill:#000000;fill-opacity:1;stroke:none;stroke-width:1px;stroke-linecap:butt;stroke-linejoin:miter;stroke-opacity:1"
       x="509"
       y="847.36218"
       id="text4710"
       sodipodi:linespacing="125%"><tspan
         sodipodi:role="line"
         id="tspan4712"
         x="509"
         y="847.36218">User</tspan></text>
    <text
       xml:space="preserve"
       style="font-style:normal;font-weight:normal;font-size:15px;line-height:125%;font-family:sans-serif;letter-spacing:0px;word-spacing:0px;fill:#000000;fill-opacity:1;stroke:none;stroke-width:1px;stroke-linecap:butt;stroke-linejoin:miter;stroke-opacity:1"
       x="807"
       y="641.36218"
       id="text4714"
       sodipodi:linespacing="125%"><tspan
         sodipodi:role="line"
         id="tspan4716"
         x="807"
         y="641.36218">StudentAssignment</tspan></text>
    <text
       xml:space="preserve"
       style="font-style:normal;font-weight:normal;font-size:15px;line-height:125%;font-family:sans-serif;letter-spacing:0px;word-spacing:0px;fill:#000000;fill-opacity:1;stroke:none;stroke-width:1px;stroke-linecap:butt;stroke-linejoin:miter;stroke-opacity:1"
       x="879"
       y="696.36218"
       id="text4718"
       sodipodi:linespacing="125%"><tspan
         sodipodi:role="line"
         id="tspan4720"
         x="879"
         y="696.36218">student</tspan></text>
    <text
       xml:space="preserve"
       style="font-style:normal;font-weight:normal;font-size:15px;line-height:125%;font-family:sans-serif;letter-spacing:0px;word-spacing:0px;fill:#000000;fill-opacity:1;stroke:none;stroke-width:1px;stroke-linecap:butt;stroke-linejoin:miter;stroke-opacity:1"
       x="882"
       y="729.36218"
       id="text4722"
       sodipodi:linespacing="125%"><tspan
         sodipodi:role="line"
         id="tspan4724"
         x="882"
         y="729.36218">course</tspan></text>
    <text
       xml:space="preserve"
       style="font-style:normal;font-weight:normal;font-size:15px;line-height:125%;font-family:sans-serif;letter-spacing:0px;word-spacing:0px;fill:#000000;fill-opacity:1;stroke:none;stroke-width:1px;stroke-linecap:butt;stroke-linejoin:miter;stroke-opacity:1"
       x="880"
       y="763.36218"
       id="text4726"
       sodipodi:linespacing="125%"><tspan
         sodipodi:role="line"
         id="tspan4728"
         x="880"
         y="763.36218">assignmentID</tspan></text>
    <text
       xml:space="preserve"
       style="font-style:normal;font-weight:normal;font-size:15px;line-height:125%;font-family:sans-serif;letter-spacing:0px;word-spacing:0px;fill:#000000;fill-opacity:1;stroke:none;stroke-width:1px;stroke-linecap:butt;stroke-linejoin:miter;stroke-opacity:1"
       x="890"
       y="799.36218"
       id="text4730"
       sodipodi:linespacing="125%"><tspan
         sodipodi:role="line"
         id="tspan4732"
         x="890"
         y="799.36218">assignmentName</tspan></text>
    <text
       xml:space="preserve"
       style="font-style:normal;font-weight:normal;font-size:15px;line-height:125%;font-family:sans-serif;letter-spacing:0px;word-spacing:0px;fill:#000000;fill-opacity:1;stroke:none;stroke-width:1px;stroke-linecap:butt;stroke-linejoin:miter;stroke-opacity:1"
       x="895"
       y="832.36218"
       id="text4734"
       sodipodi:linespacing="125%"><tspan
         sodipodi:role="line"
         id="tspan4736"
         x="895"
         y="832.36218">token</tspan></text>
    <text
       xml:space="preserve"
       style="font-style:normal;font-weight:normal;font-size:15px;line-height:125%;font-family:sans-serif;letter-spacing:0px;word-spacing:0px;fill:#000000;fill-opacity:1;stroke:none;stroke-width:1px;stroke-linecap:butt;stroke-linejoin:miter;stroke-opacity:1"
       x="898"
       y="866.36218"
       id="text4738"
       sodipodi:linespacing="125%"><tspan
         sodipodi:role="line"
         id="tspan4740"
         x="898"
         y="866.36218">data</tspan></text>
    <text
       xml:space="preserve"
       style="font-style:normal;font-weight:normal;font-size:15px;line-height:125%;font-family:sans-serif;letter-spacing:0px;word-spacing:0px;fill:#000000;fill-opacity:1;stroke:none;stroke-width:1px;stroke-linecap:butt;stroke-linejoin:miter;stroke-opacity:1"
       x="573"
       y="688.36218"
       id="text4742"
       sodipodi:linespacing="125%"><tspan
         sodipodi:role="line"
         id="tspan4744"
         x="573"
         y="688.36218">course_name</tspan></text>
    <text
       xml:space="preserve"
       style="font-style:normal;font-weight:normal;font-size:15px;line-height:125%;font-family:sans-serif;letter-spacing:0px;word-spacing:0px;fill:#000000;fill-opacity:1;stroke:none;stroke-width:1px;stroke-linecap:butt;stroke-linejoin:miter;stroke-opacity:1"
       x="592"
       y="721.36218"
       id="text4746"
       sodipodi:linespacing="125%"><tspan
         sodipodi:role="line"
         id="tspan4748"
         x="592"
         y="721.36218">user</tspan></text>
    <text
       xml:space="preserve"
       style="font-style:normal;font-weight:normal;font-size:15px;line-height:125%;font-family:sans-serif;letter-spacing:0px;word-spacing:0px;fill:#000000;fill-opacity:1;stroke:none;stroke-width:1px;stroke-linecap:butt;stroke-linejoin:miter;stroke-opacity:1"
       x="608"
       y="752.36218"
       id="text4750"
       sodipodi:linespacing="125%"><tspan
         sodipodi:role="line"
         id="tspan4752"
         x="608"
         y="752.36218">courseID</tspan></text>
    <text
       xml:space="preserve"
       style="font-style:normal;font-weight:normal;font-size:15px;line-height:125%;font-family:sans-serif;letter-spacing:0px;word-spacing:0px;fill:#000000;fill-opacity:1;stroke:none;stroke-width:1px;stroke-linecap:butt;stroke-linejoin:miter;stroke-opacity:1"
       x="335"
       y="494.36221"
       id="text4754"
       sodipodi:linespacing="125%"><tspan
         sodipodi:role="line"
         id="tspan4756"
         x="335"
         y="494.36221">code</tspan></text>
    <text
       xml:space="preserve"
       style="font-style:normal;font-weight:normal;font-size:15px;line-height:125%;font-family:sans-serif;letter-spacing:0px;word-spacing:0px;fill:#000000;fill-opacity:1;stroke:none;stroke-width:1px;stroke-linecap:butt;stroke-linejoin:miter;stroke-opacity:1"
       x="335"
       y="524.36218"
       id="text4758"
       sodipodi:linespacing="125%"><tspan
         sodipodi:role="line"
         id="tspan4760"
         x="335"
         y="524.36218">course_name</tspan></text>
    <text
       xml:space="preserve"
       style="font-style:normal;font-weight:normal;font-size:15px;line-height:125%;font-family:sans-serif;letter-spacing:0px;word-spacing:0px;fill:#000000;fill-opacity:1;stroke:none;stroke-width:1px;stroke-linecap:butt;stroke-linejoin:miter;stroke-opacity:1"
       x="45"
       y="698.36218"
       id="text4762"
       sodipodi:linespacing="125%"><tspan
         sodipodi:role="line"
         id="tspan4764"
         x="45"
         y="698.36218">courseID</tspan></text>
    <text
       xml:space="preserve"
       style="font-style:normal;font-weight:normal;font-size:15px;line-height:125%;font-family:sans-serif;letter-spacing:0px;word-spacing:0px;fill:#000000;fill-opacity:1;stroke:none;stroke-width:1px;stroke-linecap:butt;stroke-linejoin:miter;stroke-opacity:1"
       x="41"
       y="729.36218"
       id="text4766"
       sodipodi:linespacing="125%"><tspan
         sodipodi:role="line"
         id="tspan4768"
         x="41"
         y="729.36218">assignmentID</tspan></text>
    <text
       xml:space="preserve"
       style="font-style:normal;font-weight:normal;font-size:15px;line-height:125%;font-family:sans-serif;letter-spacing:0px;word-spacing:0px;fill:#000000;fill-opacity:1;stroke:none;stroke-width:1px;stroke-linecap:butt;stroke-linejoin:miter;stroke-opacity:1"
       x="38"
       y="762.36218"
       id="text4770"
       sodipodi:linespacing="125%"><tspan
         sodipodi:role="line"
         id="tspan4772"
         x="38"
         y="762.36218">assignmentName</tspan></text>
    <text
       xml:space="preserve"
       style="font-style:normal;font-weight:normal;font-size:15px;line-height:125%;font-family:sans-serif;letter-spacing:0px;word-spacing:0px;fill:#000000;fill-opacity:1;stroke:none;stroke-width:1px;stroke-linecap:butt;stroke-linejoin:miter;stroke-opacity:1"
       x="39"
       y="795.36218"
       id="text4774"
       sodipodi:linespacing="125%"><tspan
         sodipodi:role="line"
         id="tspan4776"
         x="39"
         y="795.36218">data</tspan></text>
    <text
       xml:space="preserve"
       style="font-style:normal;font-weight:normal;font-size:15px;line-height:125%;font-family:sans-serif;letter-spacing:0px;word-spacing:0px;fill:#000000;fill-opacity:1;stroke:none;stroke-width:1px;stroke-linecap:butt;stroke-linejoin:miter;stroke-opacity:1"
       x="28"
       y="828.36218"
       id="text4778"
       sodipodi:linespacing="125%"><tspan
         sodipodi:role="line"
         id="tspan4780"
         x="28"
         y="828.36218">ownerID</tspan></text>
    <text
       xml:space="preserve"
       style="font-style:normal;font-weight:normal;font-size:15px;line-height:125%;font-family:sans-serif;letter-spacing:0px;word-spacing:0px;fill:#000000;fill-opacity:1;stroke:none;stroke-width:1px;stroke-linecap:butt;stroke-linejoin:miter;stroke-opacity:1"
       x="30"
       y="860.36218"
       id="text4782"
       sodipodi:linespacing="125%"><tspan
         sodipodi:role="line"
         id="tspan4784"
         x="30"
         y="860.36218">access</tspan></text>
    <text
       xml:space="preserve"
       style="font-style:normal;font-weight:normal;font-size:15px;line-height:125%;font-family:sans-serif;letter-spacing:0px;word-spacing:0px;fill:#000000;fill-opacity:1;stroke:none;stroke-width:1px;stroke-linecap:butt;stroke-linejoin:miter;stroke-opacity:1"
       x="109"
       y="642.36218"
       id="text4786"
       sodipodi:linespacing="125%"><tspan
         sodipodi:role="line"
         x="109"
         y="642.36218"
         id="tspan4790">Assignment</tspan></text>
  </g>
</svg>
